/* XPM */
static char * tttIcon_xpm[] = {
"48 48 416 2",
"  	c None",
". 	c #EA0000",
"+ 	c #EB0000",
"@ 	c #E10000",
"# 	c #E30000",
"$ 	c #E50000",
"% 	c #E60000",
"& 	c #E70000",
"* 	c #E90000",
"= 	c #ED0000",
"- 	c #EE0000",
"; 	c #F00000",
"> 	c #F10000",
", 	c #F20000",
"' 	c #F30000",
") 	c #DE0000",
"! 	c #DF0000",
"~ 	c #E00000",
"{ 	c #EC0202",
"] 	c #EF0000",
"^ 	c #F40000",
"/ 	c #F50000",
"( 	c #F60000",
"_ 	c #F70000",
": 	c #F80000",
"< 	c #DA0000",
"[ 	c #DC0000",
"} 	c #DD0000",
"| 	c #E40000",
"1 	c #E80000",
"2 	c #F9AAAA",
"3 	c #F8A2A2",
"4 	c #F12E2E",
"5 	c #F90000",
"6 	c #FA0000",
"7 	c #D90000",
"8 	c #E20000",
"9 	c #FBCACA",
"0 	c #FFFFFF",
"a 	c #FCDDDD",
"b 	c #FC0000",
"c 	c #FB0000",
"d 	c #D50000",
"e 	c #D70000",
"f 	c #E44949",
"g 	c #F3ABAB",
"h 	c #FBE7E7",
"i 	c #FEFCFC",
"j 	c #FCE7E7",
"k 	c #F5ABAB",
"l 	c #EB4949",
"m 	c #FCE2E2",
"n 	c #FBC9C9",
"o 	c #D40000",
"p 	c #D60000",
"q 	c #EF9898",
"r 	c #F49898",
"s 	c #EB0101",
"t 	c #FEF9F9",
"u 	c #FAB4B4",
"v 	c #F51818",
"w 	c #FA8585",
"x 	c #F70808",
"y 	c #FA0101",
"z 	c #F90808",
"A 	c #D30000",
"B 	c #EE9898",
"C 	c #EC7979",
"D 	c #E12323",
"E 	c #DF0404",
"F 	c #E42323",
"G 	c #EF7979",
"H 	c #EC1313",
"I 	c #F9A0A0",
"J 	c #FBB0B0",
"K 	c #FB8686",
"L 	c #F90101",
"M 	c #FC9696",
"N 	c #FDCACA",
"O 	c #F71818",
"P 	c #D10000",
"Q 	c #E14949",
"R 	c #E34040",
"S 	c #DB0000",
"T 	c #EA4040",
"U 	c #EE4949",
"V 	c #ED2B2B",
"W 	c #F78C8C",
"X 	c #F42A2A",
"Y 	c #FEFBFB",
"Z 	c #F83333",
"` 	c #F80101",
" .	c #FC9494",
"..	c #FEE4E4",
"+.	c #F63131",
"@.	c #CF0000",
"#.	c #D00000",
"$.	c #D20000",
"%.	c #F1ABAB",
"&.	c #EA7979",
"*.	c #F07979",
"=.	c #F7ABAB",
"-.	c #EF4444",
";.	c #F67878",
">.	c #FA9595",
",.	c #FDD1D1",
"'.	c #F70606",
").	c #FB9494",
"!.	c #FEF1F1",
"~.	c #F53636",
"{.	c #DD2323",
"].	c #E72323",
"^.	c #F05C5C",
"/.	c #F46363",
"(.	c #F31414",
"_.	c #FEEFEF",
":.	c #FDD4D4",
"<.	c #FEF5F5",
"[.	c #F53E3E",
"}.	c #CD0000",
"|.	c #CE0000",
"1.	c #D80404",
"2.	c #E30404",
"3.	c #F37474",
"4.	c #F14F4F",
"5.	c #F77171",
"6.	c #F64A4A",
"7.	c #CB0000",
"8.	c #FAE7E7",
"9.	c #DC2323",
"0.	c #D80000",
"a.	c #E62323",
"b.	c #F58C8C",
"c.	c #F03B3B",
"d.	c #F54949",
"e.	c #FEFAFA",
"f.	c #F64F4F",
"g.	c #EC0000",
"h.	c #CC0000",
"i.	c #F0ABAB",
"j.	c #E97979",
"k.	c #F6ABAB",
"l.	c #F6A4A4",
"m.	c #ED2626",
"n.	c #F34343",
"o.	c #FEF6F6",
"p.	c #FDDFDF",
"q.	c #F11212",
"r.	c #C90000",
"s.	c #E04949",
"t.	c #E14040",
"u.	c #E74040",
"v.	c #F8BCBC",
"w.	c #EB1212",
"x.	c #F14343",
"y.	c #FABEBE",
"z.	c #FBC2C2",
"A.	c #EE0707",
"B.	c #C80000",
"C.	c #ED9898",
"D.	c #EB7979",
"E.	c #DF2323",
"F.	c #DB0404",
"G.	c #E02323",
"H.	c #ED7979",
"I.	c #F39898",
"J.	c #FAD5D5",
"K.	c #E80202",
"L.	c #EF3E3E",
"M.	c #FEF4F4",
"N.	c #F57F7F",
"O.	c #ED0101",
"P.	c #F8A9A9",
"Q.	c #ED0202",
"R.	c #F29898",
"S.	c #FDEDED",
"T.	c #FCE9E9",
"U.	c #F9BDBD",
"V.	c #F69797",
"W.	c #EC0D0D",
"X.	c #FBD3D3",
"Y.	c #F58989",
"Z.	c #C60000",
"`.	c #CA0000",
" +	c #E64949",
".+	c #E20606",
"++	c #FEFEFE",
"@+	c #FAD4D4",
"#+	c #EA1818",
"$+	c #F8ABAB",
"%+	c #EA0303",
"&+	c #ED2323",
"*+	c #ED3636",
"=+	c #C70000",
"-+	c #D32323",
";+	c #D62E2E",
">+	c #D31919",
",+	c #D10404",
"'+	c #E51D1D",
")+	c #F8C1C1",
"!+	c #EA2626",
"~+	c #E70707",
"{+	c #EE4444",
"]+	c #F16969",
"^+	c #C50000",
"/+	c #F3C3C3",
"(+	c #FDF7F7",
"_+	c #F9DDDD",
":+	c #F5C4C4",
"<+	c #F2B3B3",
"[+	c #EF9999",
"}+	c #EB8080",
"|+	c #E86666",
"1+	c #E54D4D",
"2+	c #E33C3C",
"3+	c #E12222",
"4+	c #DE0606",
"5+	c #E63636",
"6+	c #EA2020",
"7+	c #C40000",
"8+	c #D12A2A",
"9+	c #FCECEC",
"0+	c #FBE3E3",
"a+	c #FEFDFD",
"b+	c #FBDFDF",
"c+	c #F7BABA",
"d+	c #F39595",
"e+	c #EF6F6F",
"f+	c #EC4A4A",
"g+	c #E82525",
"h+	c #E50404",
"i+	c #C30000",
"j+	c #E79090",
"k+	c #FBDDDD",
"l+	c #F7BBBB",
"m+	c #F49999",
"n+	c #F07777",
"o+	c #EC4D4D",
"p+	c #E72222",
"q+	c #E30303",
"r+	c #DA5555",
"s+	c #E27474",
"t+	c #E68585",
"u+	c #EA9595",
"v+	c #EDA6A6",
"w+	c #F1B7B7",
"x+	c #F4C7C7",
"y+	c #F8D8D8",
"z+	c #FAE8E8",
"A+	c #FDF9F9",
"B+	c #FEF8F8",
"C+	c #F9D4D4",
"D+	c #F5AEAE",
"E+	c #F08989",
"F+	c #E00909",
"G+	c #C10000",
"H+	c #C20000",
"I+	c #D50B0B",
"J+	c #D91B1B",
"K+	c #DD2C2C",
"L+	c #E13C3C",
"M+	c #E34D4D",
"N+	c #E75E5E",
"O+	c #EE8C8C",
"P+	c #FADDDD",
"Q+	c #FDF3F3",
"R+	c #DF0808",
"S+	c #C00000",
"T+	c #E44F4F",
"U+	c #DE0A0A",
"V+	c #E11A1A",
"W+	c #E53333",
"X+	c #E84D4D",
"Y+	c #EA5E5E",
"Z+	c #ED7777",
"`+	c #F19191",
" @	c #F3A2A2",
".@	c #F6BBBB",
"+@	c #F9D5D5",
"@@	c #FCEEEE",
"#@	c #FDF6F6",
"$@	c #CC0808",
"%@	c #CC0101",
"&@	c #D30808",
"*@	c #E98585",
"=@	c #D81818",
"-@	c #E86D6D",
";@	c #DE0B0B",
">@	c #E12424",
",@	c #E43B3B",
"'@	c #E75151",
")@	c #E96262",
"!@	c #CE1818",
"~@	c #F3CACA",
"{@	c #E99696",
"]@	c #E98686",
"^@	c #F1B0B0",
"/@	c #EC8B8B",
"(@	c #BF0000",
"_@	c #D03131",
":@	c #F9E4E4",
"<@	c #E99494",
"[@	c #CD0101",
"}@	c #D73333",
"|@	c #D92A2A",
"1@	c #F1AAAA",
"2@	c #F8D6D6",
"3@	c #F09898",
"4@	c #BE0000",
"5@	c #D23636",
"6@	c #FBF1F1",
"7@	c #CD0606",
"8@	c #F5D1D1",
"9@	c #EB9595",
"0@	c #F5C8C8",
"a@	c #F5C5C5",
"b@	c #DE2323",
"c@	c #DA0404",
"d@	c #BD0000",
"e@	c #D33E3E",
"f@	c #FCF5F5",
"g@	c #F6D4D4",
"h@	c #FBEFEF",
"i@	c #D11414",
"j@	c #FAE6E6",
"k@	c #E24949",
"l@	c #D64A4A",
"m@	c #E27171",
"n@	c #D10707",
"o@	c #EFA2A2",
"p@	c #E87979",
"q@	c #D74F4F",
"r@	c #FDFAFA",
"s@	c #D94949",
"t@	c #D52424",
"u@	c #EB9191",
"v@	c #D92323",
"w@	c #DA2323",
"x@	c #BC0000",
"y@	c #C91212",
"z@	c #F7DFDF",
"A@	c #D84343",
"B@	c #DA4242",
"C@	c #E78080",
"D@	c #D20404",
"E@	c #D30404",
"F@	c #BB0000",
"G@	c #C40707",
"H@	c #F0C2C2",
"I@	c #F0BEBE",
"J@	c #D74343",
"K@	c #DF6161",
"L@	c #E36F6F",
"M@	c #D72323",
"N@	c #D82323",
"O@	c #C10202",
"P@	c #EAA9A9",
"Q@	c #EBAAAA",
"R@	c #C50101",
"S@	c #E27F7F",
"T@	c #FCF4F4",
"U@	c #D63E3E",
"V@	c #E47F7F",
"W@	c #DF5D5D",
"X@	c #EEABAB",
"Y@	c #E57979",
"Z@	c #E67979",
"`@	c #EFABAB",
" #	c #BA0000",
".#	c #E18989",
"+#	c #F4D3D3",
"@#	c #C60D0D",
"##	c #E79797",
"$#	c #F0BDBD",
"%#	c #EA9D9D",
"&#	c #DB4C4C",
"*#	c #DB4949",
"=#	c #DA4040",
"-#	c #DB4040",
";#	c #DC4949",
">#	c #CA3636",
",#	c #FAEDED",
"'#	c #C92323",
")#	c #C50303",
"!#	c #EBABAB",
"~#	c #F8E2E2",
"{#	c #CC1818",
"]#	c #F0BBBB",
"^#	c #D73B3B",
"/#	c #EA9898",
"(#	c #E47979",
"_#	c #CD0404",
":#	c #D86969",
"<#	c #D04444",
"[#	c #C50707",
"}#	c #CC2626",
"|#	c #F6DADA",
"1#	c #E99898",
"2#	c #B80000",
"3#	c #B90000",
"4#	c #C42020",
"5#	c #C40101",
"6#	c #FCF6F6",
"7#	c #CD1818",
"8#	c #D84949",
"9#	c #EDABAB",
"0#	c #C91717",
"a#	c #C70808",
"b#	c #CE3535",
"c#	c #D14545",
"d#	c #F8E5E5",
"e#	c #C10707",
"f#	c #CE3939",
"g#	c #DC7070",
"h#	c #E28989",
"i#	c #B70000",
"                                              . +                                               ",
"                                  @ # $ % & * + + = - ; > , '                                   ",
"                            ) ! ~ @ # $ % & . + { = ] > , ^ / ( _ :                             ",
"                        < [ } ! @ @ # | % 1 . + 2 3 4 > , ^ ( _ : 5 6 6                         ",
"                      7 < [ ) ! ~ 8 # $ & 1 . + 9 0 a > ' ^ ( _ : 6 b c 6                       ",
"                  d e 7 f g h i j k l $ % * * + m 0 n > ' ^ ( _ 5 c b b c 6 :                   ",
"                o p e q 0 0 0 0 0 0 0 r & 1 . s t 0 u > ' v w x 5 6 c b y z _ (                 ",
"              A o d B 0 0 C D E F G 0 0 r 1 * H 0 0 I > , J 0 K : 5 6 L M N O / ^               ",
"            P A A Q 0 0 R S } ) ~ @ T 0 0 U * V 0 0 W ; , X Y Y Z _ `  .0 0 ..+.^ ,             ",
"          @.#.$.o %.0 &.7 S [ ! ~ 8 # *.0 =.1 -.0 0 ;.; > , >.0 ,.'.).0 0 0 !.~.' > ]           ",
"          @.#.$.A h 0 {.7 S [ ) ! @ # ].0 j * ^.0 0 /.] ; > (._.0 :.0 0 0 <.[.' > ; ]           ",
"        }.|.#.P A i 0 1.7 < [ } ! ~ @ 2.0 i 1 3.0 0 4.- ] > , 5.0 0 0 0 t 6.' > > ; - =         ",
"      7.}.@.#.P $.8.0 9.0.< [ } ! ~ @ a.0 j & b.0 0 c.= - ] ; d.0 0 0 e.f.> > ; ] - = g.+       ",
"      7.h.|.@.#.$.i.0 j.7 7 S [ } ! ~ G 0 k.% l.0 0 m.g.= = n.o.0 0 0 p.q.; ; - - = g.+ .       ",
"    r.7.h.}.@.P P s.0 0 t.7 < [ } ! u.0 0 l $ v.0 0 w.+ g.x.o.0 0 y.0 0 z.A.- - = g.+ . * &     ",
"    B.r.7.}.@.#.$.A C.0 0 D.E.F.G.H.0 0 I.# | J.0 i K.* L.M.0 0 N.O.2 0 0 P.Q.g.+ + . 1 & %     ",
"    B.r.7.}.|.@.P A o C.0 0 0 0 0 0 0 R.@ 8 # S.0 T.1 1 U.0 0 V.g.g.W.X.0 0 Y.. . . * 1 % %     ",
"  Z.B.r.`.h.}.@.#.$.A o Q %.h i h g  +! ~ @ .+++0 @+% & #+m $+%+* . . &+S.0 0 *+* 1 & & % | |   ",
"  Z.=+B.`.7.-+;+>+,+$.A d p e 7 < S [ } ! ~ '+0 0 )+$ $ & !+~+1 1 * * * {+t ]+1 & % $ $ | # 8   ",
"  ^+Z.B.r.7./+0 0 0 (+_+:+<+[+}+|+1+2+3+4+! 5+0 0 k | $ $ % % % & & & & 1 6+& % $ $ $ | 8 8 @   ",
"  7+^+=+B.8+0 0 0 0 0 0 0 0 0 0 0 0 0 0 0 9+0+0 0 a+b+c+d+e+f+g+h+% % % % % $ $ | # # 8 8 @ !   ",
"  i+^+Z.B.j+0 0 0 0 0 0 0 0 0 0 0 0 0 0 0 0 0 0 0 0 0 0 0 0 0 0 Y k+l+m+n+o+p+q+# 8 8 @ @ ~ !   ",
"  i+^+^+=+r+s+t+u+v+w+x+y+z+A+0 0 0 0 0 0 0 0 0 0 0 0 0 0 0 0 0 0 0 0 0 0 0 0 B+C+D+E+F+! ! }   ",
"G+H+7+^+Z.=+r.7.7.}.|.@.P $.A I+J+K+L+M+N+O+0 0 0 P+Q+0 0 0 0 0 0 0 0 0 0 0 0 0 0 0 0 R+) } [ S ",
"S+G+i+7+^+=+B.r.`.h.|.|.@.#.$.A o d p e 0.T+0 0 0 U+[ R+V+W+X+Y+Z+`+ @.@+@@@0 0 0 0 #@} [ [ S < ",
"  S+H+7+^+Z.B.B.r.$@%@|.@.#.#.&@*@=@d p p -@0 0 t S [ [ } } } ) } } ) ) ) ) ;@>@,@'@)@[ S < <   ",
"  S+H+H+7+^+=+B.!@~@{@%@|.@.#.]@0 ^@o d d /@0 0 h 7 < S S  +g h i h g  +} } [ [ S S S < 7 7 0.  ",
"  (@S+H+i+7+^+_@:@0 0 <@[@|.}@Y Y |@$.A o 1@0 0 2@0.0.< q 0 0 0 0 0 0 0 3@< S < < 7 7 0.0.0.)   ",
"  4@S+G+H+i+7+5@6@0 0 0 <@7@8@0 9@#.P $.A 0@0 0 a@p e q 0 0 &.b@c@E.D.0 0 q 7 7 7 0.e e p p d   ",
"  d@(@S+H+i+7+^+e@f@0 0 0 g@0 h@i@@.#.P $.j@0 0 <+d Q 0 0 t.e e e 0.0.t.0 0 k@0.e e p d d o o   ",
"  d@4@(@S+G+i+7+^+l@A+0 0 0 0 m@}.|.@.@.n@a+0 0 o@o i.0 p@d d p p e p p j.0 %.p p d o o A o $.  ",
"    d@4@(@G+G+H+7+7+q@r@0 0 0 s@h.h.}.@.t@0 0 0 u@A 8.0 v@o o d d d d d w@0 8.o o o A $.$.$.    ",
"    x@d@4@S+S+G+H+7+y@z@0 0 0 #@A@7.h.}.B@0 0 0 C@#.i 0 D@$.A A A A A A E@0 i A A $.$.$.P #.    ",
"    F@x@d@4@(@S+G+G@H@0 0 I@0 0 #@J@7.h.K@0 0 0 L@#.8.0 M@P P $.$.$.$.$.N@0 8.$.P P #.#.@.@.    ",
"      F@x@d@4@(@O@P@0 0 Q@R@S@0 0 T@U@`.V@0 0 0 W@|.X@0 Y@@.#.@.#.#.#.#.Z@0 `@#.#.#.@.@.|.      ",
"       #F@x@d@4@.#0 0 +#@#7+^+##0 0 $#B.%#0 0 0 &#h.*#0 0 =#|.@.@.|.@.-#0 0 ;#|.|.}.}.}.h.      ",
"         #F@x@>#0 0 ,#'#H+i+i+)#!#~#{#=+]#0 0 0 ^#`.h./#0 0 (#-+_#-+(#0 0 /#}.}.}.h.h.h.        ",
"           #F@x@:#A+<#S+S+G+i+i+[#}#^+Z.|#0 0 0 8+`.`.`.1#0 0 0 0 0 0 0 /#h.7.7.7.7.`.          ",
"          2#3#F@x@4#d@(@(@S+G+H+H+i+7+5#6#0 0 0 7#B.B.r.r.8#9#8.i 8.9#s@`.`.`.r.r.r.r.          ",
"            2# #F@F@d@d@4@(@(@G+G+H+i+0#0 0 0 0 a#=+=+=+B.B.B.B.r.B.B.B.r.B.B.B.B.=+            ",
"              3#3# #F@x@d@d@4@(@S+S+G+b#0 0 0 6#7+^+^+Z.Z.Z.=+=+=+=+=+=+=+=+=+Z.Z.              ",
"                2#3# #F@x@x@d@d@(@S+S+c#A+0 0 d#7+i+7+7+7+^+^+^+^+^+^+^+^+^+^+^+                ",
"                  2#3# # #F@x@d@d@4@(@(@e#f#g#h#H+H+H+i+i+7+i+7+7+i+7+7+7+7+7+                  ",
"                      2#3#3# #F@x@d@d@d@4@(@(@S+S+G+G+G+H+H+G+H+H+i+H+i+H+                      ",
"                        i#2#3# # #F@x@x@d@d@4@4@4@(@S+S+S+S+S+G+S+S+G+G+                        ",
"                            2#3#3#3# # #F@x@d@d@4@d@4@4@4@4@(@(@(@(@                            ",
"                                  2#3#3#3# # #F@x@x@x@d@d@d@d@                                  ",
"                                              3# #                                              "};
